<?xml version="1.0" encoding="UTF-8"?>
<!DOCTYPE svg PUBLIC "-//W3C//DTD SVG 1.1//EN" "http://www.w3.org/Graphics/SVG/1.1/DTD/svg11.dtd">
<!-- Creator: CorelDRAW -->
<svg xmlns="http://www.w3.org/2000/svg" xml:space="preserve" width="215.696mm" height="41.6224mm" version="1.1" style="shape-rendering:geometricPrecision; text-rendering:geometricPrecision; image-rendering:optimizeQuality; fill-rule:evenodd; clip-rule:evenodd"
viewBox="0 0 21569.62 4162.24"
 xmlns:xlink="http://www.w3.org/1999/xlink"
 xmlns:xodm="http://www.corel.com/coreldraw/odm/2003">
 <defs>
  <style type="text/css">
   <![CDATA[
    .fil1 {fill:#FEFEFE}
    .fil0 {fill:#FEFEFE;fill-rule:nonzero}
   ]]>
  </style>
 </defs>
 <g id="Слой_x0020_1">
  <metadata id="CorelCorpID_0Corel-Layer"/>
  <g id="_2764227020416">
   <path class="fil0" d="M6722.69 3212.19l0 -2322.53 362.03 0 0 822.24c155.44,-134.99 337.48,-202.49 546.11,-202.49 212.72,0 373.8,54.2 483.22,162.61 109.43,108.4 164.15,291.46 164.15,549.18l0 990.99 -365.1 0 0 -917.36c0,-173.85 -34.26,-294.53 -102.78,-362.03 -68.53,-67.49 -164.15,-101.25 -286.87,-101.25 -163.63,0 -309.87,66.48 -438.73,199.43l0 1181.21 -362.03 0zm2413.95 33.75c-427.49,0 -641.23,-237.27 -641.23,-711.8l0 -990.98 362.04 0 0 917.35c0,308.85 125.79,463.28 377.37,463.28 167.72,0 312.94,-72.61 435.66,-217.83l0 -1162.8 362.04 0 0 1669.03 -346.7 0 0 -187.15c-147.26,147.26 -330.33,220.9 -549.18,220.9zm2042.72 0c-233.17,0 -409.08,-69.55 -527.71,-208.63l0 174.88 -352.83 0 0 -2322.53 355.9 0 0 813.04c132.95,-130.9 312.94,-196.36 539.98,-196.36 239.31,0 432.6,78.24 579.86,234.71 147.27,156.47 220.9,367.65 220.9,633.55 0,265.9 -74.14,477.6 -222.43,635.09 -148.29,157.5 -346.18,236.25 -593.67,236.25zm-70.57 -322.15c155.45,0 279.2,-49.09 371.24,-147.27 92.04,-98.18 138.06,-233.17 138.06,-404.99 0,-169.76 -46.02,-302.71 -138.06,-398.84 -92.04,-96.14 -212.72,-144.2 -362.03,-144.2 -90,0 -177.95,21.48 -263.86,64.43 -85.9,42.95 -153.4,101.24 -202.49,174.88l0 610.54c47.04,81.82 111.48,143.18 193.29,184.09 81.82,40.9 169.76,61.36 263.85,61.36z"/>
   <path class="fil1" d="M1117.6 3848.82l4053.88 0c527.22,0 958.57,-431.35 958.57,-958.57l0 -1662.55c0,-446.46 -309.34,-824.13 -724.25,-929.37l0 2361.13c0,123.5 -24.97,242.25 -70.19,351.43 -47.2,113.93 -115.44,215.54 -199.52,299.63 -84.1,84.09 -185.7,152.33 -299.63,199.52 -109.18,45.22 -227.93,70.19 -351.44,70.19 -123.5,0 -242.25,-24.97 -351.43,-70.19 -113.93,-47.19 -215.53,-115.43 -299.63,-199.52 -39.49,-39.49 -76.13,-83.84 -109.36,-132.48 -30.54,-44.7 -57.45,-92.82 -80.23,-143.85l-555.54 -1118.14 0.3 -0.15 -263.09 -525.91c-6.85,-11.78 -14.36,-23.31 -21.68,-33.05 -4.66,-6.21 -11.22,-13.68 -19.68,-22.13 -22.6,-22.61 -48.46,-40.35 -76.15,-51.82 -27.15,-11.24 -57.9,-17.45 -91.15,-17.45 -33.26,0 -64,6.2 -91.16,17.45 -27.69,11.47 -53.54,29.21 -76.15,51.82 -9.32,9.31 -16.34,17.03 -20.98,23.06 -5.09,6.62 -10.07,13.97 -14.89,22.02l-1296.6 2468.93zm3604 -3579.69l-3767.56 0c-527.22,0 -958.57,431.35 -958.57,958.57l0 1662.55c0,334.47 173.64,630.31 435.2,801.95l1354.41 -2582.83 -0.16 -0.08c22.84,-48.32 49.51,-94.04 79.59,-136.73 31.32,-44.46 65.41,-85.12 101.81,-121.51 166.63,-166.63 396.83,-269.71 651.06,-269.71 123.5,0 242.25,24.96 351.43,70.19 113.93,47.19 215.54,115.43 299.63,199.52 42.05,42.05 80.82,89.54 115.61,141.78 31.25,46.91 58.53,97.62 81.27,151.57l547.04 1101.12 -0.3 0.15 237.25 474.26 30.55 57.36c3.05,5.72 6.58,11.37 11.75,18.37 5.21,7.05 13.61,17.05 26.3,31.29 22.56,22.52 48.34,40.19 75.95,51.63 27.16,11.24 57.9,17.45 91.16,17.45 33.26,0 64.01,-6.21 91.16,-17.45 27.69,-11.47 53.55,-29.21 76.15,-51.82 22.61,-22.6 40.35,-48.45 51.81,-76.15 11.25,-27.15 17.46,-57.89 17.46,-91.15l0 -2390.33z"/>
  </g>
 </g>
</svg>
